<?xml version="1.0" encoding="utf-8"?>
<!-- Generator: Adobe Illustrator 17.1.0, SVG Export Plug-In . SVG Version: 6.00 Build 0)  -->
<!DOCTYPE svg PUBLIC "-//W3C//DTD SVG 1.1//EN" "http://www.w3.org/Graphics/SVG/1.1/DTD/svg11.dtd">
<svg version="1.1" id="Layer_1" xmlns="http://www.w3.org/2000/svg" xmlns:xlink="http://www.w3.org/1999/xlink" x="0px" y="0px"
	 viewBox="0 0 366 301.5" enable-background="new 0 0 366 301.5" xml:space="preserve">
<g>
	<defs>
		<rect id="SVGID_1_" x="-114.7" y="-266" width="595.3" height="841.9"/>
	</defs>
	<clipPath id="SVGID_2_">
		<use xlink:href="#SVGID_1_"  overflow="visible"/>
	</clipPath>
	<path clip-path="url(#SVGID_2_)" fill="none" stroke="#000000" stroke-width="1.451" stroke-miterlimit="10" d="M81.1,186.9
		c0,0,33.7,8,22.5,16.7c0,0-27.2,2.5-18.9,25c0,0,30.1,51.5,109.2,25c0,0,34.8-20.3,38.5-29l16-32.3l-168.7-5.4"/>
	<path clip-path="url(#SVGID_2_)" fill="none" stroke="#000000" stroke-width="2.176" stroke-miterlimit="10" d="M248.2,123.8
		C243.4,83.5,202.9,52,153.6,52c-46.6,0-85.4,28.2-93.5,65.3c0,0,30-14.2,47.8,3.2c0,0,46.8-25,89.6,3.3c0,0,22.9-18.1,47.2-1.5
		L248.2,123.8z"/>
	<polygon clip-path="url(#SVGID_2_)" points="45.2,166.6 53.2,156.8 65.1,166.3 	"/>
	<polygon clip-path="url(#SVGID_2_)" points="72.8,165.9 75.3,152.5 89.1,164.4 	"/>
	<path clip-path="url(#SVGID_2_)" fill="#0057A8" d="M53.2,176.1c0,0-3.6,14.1,33.7,10.9c0,0,92.1-0.4,75.4,15.2
		c0,0-23.9,20,1.5,23.6l16.3,0.4l57.7-28.7c0,0,5.8,0.4,9.4-1.8l5.1-11.6L53.2,176.1z"/>
	<path clip-path="url(#SVGID_2_)" fill="none" stroke="#000000" stroke-width="1.451" stroke-miterlimit="10" d="M53.2,176.1
		c0,0-3.6,14.1,33.7,10.9c0,0,92.1-0.4,75.4,15.2c0,0-23.9,20,1.5,23.6l16.3,0.4l57.7-28.7c0,0,5.8,0.4,9.4-1.8l5.1-11.6L53.2,176.1
		z"/>
	<path clip-path="url(#SVGID_2_)" fill="none" stroke="#000000" stroke-width="2.176" stroke-miterlimit="10" d="M59.3,191.3
		l24.3-0.4c0,0,12,5.8,11.2,8.7c0,0-20.3,8.7-21,21C73.8,220.7,57.9,195.3,59.3,191.3z"/>
	<path clip-path="url(#SVGID_2_)" fill="none" stroke="#000000" stroke-width="2.176" stroke-miterlimit="10" d="M200.1,199.3
		c0,0,9.1-24.7,18.5-23.2c0,0-5.4,15.2-6.2,18.9c0,0,27.6-1.1,30.1,1.1c0,0-16.7,6.5-16.3,11.2c0,0,29.7,6.2,26.8,20.3
		c0,0-28.7-8.3-37.7-1.4c0,0-20.3,21-15.2,35.2c0,0-9.4-18.5-4.7-34.5c0,0-14.1,8-16.7,16c0,0,0.4-23.9,8.3-29.4v-2.9
		c0,0-10.9-6.2-16.7-4.7c0,0,16.7-8.7,27.2-6.9L200.1,199.3z"/>
	<path clip-path="url(#SVGID_2_)" fill="none" stroke="#000000" stroke-width="2.176" stroke-miterlimit="10" d="M218.6,246.4
		c0,0,11.6-10.2,24.3-7.3c0,0,10.9-12.7,25.4-9.8c0,0-9.8,9.1-10.2,12c0,0,20.3,8,21.4,14.1l-15.6-0.4c0,0,16.7,11.2,15.6,17.8
		c0,0-14.5-7.3-27.2-4c0,0-16.7,14.1-18.9,20.7l0.7-23.2c0,0-9.8,5.4-10.9,7.6c0,0-1.5-18.1,8.3-23.9L218.6,246.4z"/>
	<g clip-path="url(#SVGID_2_)">
		<path fill="#07AF5D" d="M81.1,186.9c0,0,33.7,8,22.5,16.7c0,0-27.2,2.5-18.9,25c0,0,30.1,51.5,109.2,25c0,0,34.8-20.3,38.5-29
			l16-32.3l-168.7-5.4"/>
		<path fill="#F57E33" d="M248.2,123.8C243.4,83.5,202.9,52,153.6,52c-46.6,0-85.4,28.2-93.5,65.3c0,0,30-14.2,47.8,3.2
			c0,0,46.8-25,89.6,3.3c0,0,22.9-18.1,47.2-1.5L248.2,123.8z"/>
		<path fill="none" stroke="#000000" stroke-width="2.176" stroke-miterlimit="10" d="M157.4,52.1c0,0-35.7,9.3-49.5,68.4"/>
		<path fill="none" stroke="#000000" stroke-width="2.176" stroke-miterlimit="10" d="M160.1,52.5c0,0,39.7,19.1,37.5,69.9"/>
		<polygon points="155.8,51.9 157.3,11.7 160.9,11.7 161.8,52.4 		"/>
		<path fill="#F57E33" d="M165.3,13.6c0,0,5.8-4.3,10.2,0.4c0,0,4.4,1.8,6.2-0.7c0,0,6.5-1.5,7.3,2.2h6.9v10.2h-6.5
			c0,0-5.8-3.6-7.3-0.7v1.8h-8.7v-1.8h-5.4v1.8h-2.2L165.3,13.6z"/>
		<path d="M54.6,148.1c0,3-2.4,5.4-5.4,5.4c-3,0-5.4-2.4-5.4-5.4c0-3,2.4-5.4,5.4-5.4C52.2,142.7,54.6,145.1,54.6,148.1"/>
		<path d="M72.8,145.9c0,3-2.4,5.4-5.4,5.4s-5.4-2.4-5.4-5.4c0-3,2.4-5.4,5.4-5.4S72.8,142.9,72.8,145.9"/>
		<path d="M89.1,144.5c0,3-2.4,5.4-5.4,5.4c-3,0-5.4-2.4-5.4-5.4c0-3,2.4-5.4,5.4-5.4C86.6,139.1,89.1,141.5,89.1,144.5"/>
		<path d="M104.3,144.5c0,3-2.4,5.4-5.4,5.4c-3,0-5.4-2.4-5.4-5.4c0-3,2.4-5.4,5.4-5.4C101.9,139.1,104.3,141.5,104.3,144.5"/>
		<path d="M119.5,144.5c0,3-2.4,5.4-5.4,5.4c-3,0-5.4-2.4-5.4-5.4c0-3,2.4-5.4,5.4-5.4C117.1,139.1,119.5,141.5,119.5,144.5"/>
		<path d="M133.7,143c0,3-2.4,5.4-5.4,5.4c-3,0-5.4-2.4-5.4-5.4c0-3,2.4-5.4,5.4-5.4C131.3,137.6,133.7,140,133.7,143"/>
		<path d="M150,142.7c0,3-2.4,5.4-5.4,5.4c-3,0-5.4-2.4-5.4-5.4c0-3,2.4-5.4,5.4-5.4C147.6,137.2,150,139.7,150,142.7"/>
		<path d="M165.6,141.6c0,3-2.4,5.4-5.4,5.4c-3,0-5.4-2.4-5.4-5.4c0-3,2.4-5.4,5.4-5.4C163.2,136.2,165.6,138.6,165.6,141.6"/>
		<path d="M183,140.5c0,3-2.4,5.4-5.4,5.4c-3,0-5.4-2.4-5.4-5.4c0-3,2.4-5.4,5.4-5.4C180.6,135.1,183,137.5,183,140.5"/>
		<path d="M197.2,140.5c0,3-2.4,5.4-5.4,5.4c-3,0-5.4-2.4-5.4-5.4c0-3,2.4-5.4,5.4-5.4C194.7,135.1,197.2,137.5,197.2,140.5"/>
		<path d="M211.7,141.2c0,3-2.4,5.4-5.4,5.4c-3,0-5.4-2.4-5.4-5.4c0-3,2.4-5.4,5.4-5.4C209.2,135.8,211.7,138.2,211.7,141.2"/>
		<path d="M226.9,141.2c0,3-2.4,5.4-5.4,5.4c-3,0-5.4-2.4-5.4-5.4c0-3,2.4-5.4,5.4-5.4C224.5,135.8,226.9,138.2,226.9,141.2"/>
		<path d="M241.8,139.4c0,3-2.4,5.4-5.4,5.4c-3,0-5.4-2.4-5.4-5.4c0-3,2.4-5.4,5.4-5.4C239.4,134,241.8,136.4,241.8,139.4"/>
		<path fill="#1A171C" d="M7.8,173.9l249.9-14.1c0,0,30.1-13.1,42.4-31.9c0,0,28.3-29.7,59.5-25.4l-10.9,12.3l-1.1,8
			c0,0-58.4,4.4-79.1,62L7.8,173.9z"/>
		<polygon points="87.3,161.9 89.4,161.2 93.1,150.7 102.9,159.7 105,159.7 107.6,150.3 118.1,158.3 120.3,157.9 123.9,150.3 
			132.2,156.8 134.4,157.2 138,148.8 149.3,157.6 152.6,149.2 163.4,155.7 168.2,147.4 179,154.7 181.6,154.7 183.8,146.7 
			192.5,153.6 196.4,153.9 197.5,146.7 208.4,153.9 210.6,153.9 212.8,145.6 222.6,153.6 225.8,153.2 226.6,147.4 229.5,145.9 
			238.5,153.9 242.5,144.5 256.3,155 89.1,164.4 		"/>
		<path fill="#1CB363" d="M59.3,191.3l24.3-0.4c0,0,12,5.8,11.2,8.7c0,0-20.3,8.7-21,21C73.8,220.7,57.9,195.3,59.3,191.3"/>
		<path fill="#9CCC52" d="M200.1,199.3c0,0,9.1-24.7,18.5-23.2c0,0-5.4,15.2-6.2,18.9c0,0,27.6-1.1,30.1,1.1c0,0-16.7,6.5-16.3,11.2
			c0,0,29.7,6.2,26.8,20.3c0,0-28.7-8.3-37.7-1.4c0,0-20.3,21-15.2,35.2c0,0-9.4-18.5-4.7-34.5c0,0-14.1,8-16.7,16
			c0,0,0.4-23.9,8.3-29.4v-2.9c0,0-10.9-6.2-16.7-4.7c0,0,16.7-8.7,27.2-6.9L200.1,199.3z"/>
		<path fill="#99CB54" d="M218.6,246.4c0,0,11.6-10.2,24.3-7.3c0,0,10.9-12.7,25.4-9.8c0,0-9.8,9.1-10.2,12c0,0,20.3,8,21.4,14.1
			l-15.6-0.4c0,0,16.7,11.2,15.6,17.8c0,0-14.5-7.3-27.2-4c0,0-16.7,14.1-18.9,20.7l0.7-23.2c0,0-9.8,5.4-10.9,7.6
			c0,0-1.5-18.1,8.3-23.9L218.6,246.4z"/>
		<path fill="none" stroke="#000000" stroke-width="2.176" stroke-miterlimit="10" d="M35.6,127.5c4.2,0,8.4,0.1,12.5-0.1
			c-0.3-4.9-6.6-6.9-7.1-11.9c3.8-0.2,7.7,0,11.5-0.1c1.3-4.2-7.1-10.3-9.6-13.5"/>
		<path fill="none" stroke="#000000" stroke-width="2.176" stroke-miterlimit="10" d="M58.4,82c-4.7,5.2,6.2,13.8,9.7,9.2
			c4.4-5.8-7.2-13.7-11.6-9.2"/>
		<path fill="none" stroke="#000000" stroke-width="2.176" stroke-miterlimit="10" d="M74.3,64.1c3.2,1,7.6,5.1,7.8,8.7
			c0.6-2.5-1.2-11.2-2-14.5"/>
		<path fill="none" stroke="#000000" stroke-width="2.176" stroke-miterlimit="10" d="M94.1,40.9c-0.3,4.9,3.1,6.6,5.3,10.2
			c0.9,1.5,6.1,9.9,6.8,2.9"/>
		<path fill="none" stroke="#000000" stroke-width="2.176" stroke-miterlimit="10" d="M129,35.6c-1.4-1.1-3.1-1.7-4.8-1.3
			c-1.5,2.9-5.6,16.3,1.8,11.9c5.7-3.4,1.7-12.5,1.9-17.3c-0.8,5.9,4.2,11.7,6.8,16.3"/>
		<path fill="none" stroke="#000000" stroke-width="2.176" stroke-miterlimit="10" d="M172,44.8c3.1-3.9,3.2-9.2,6.3-13.1
			c2.1,3.2,3,7.3,4,11.1c3.1,0.6,10.2-5.1,12-7.5c-0.1,5,0,9.9,0,14.9"/>
		<path fill="none" stroke="#000000" stroke-width="2.176" stroke-miterlimit="10" d="M210.7,47.7c1.2-11.7-12.9-4.3-12,3.3
			c4.1,0.3,6.9-0.2,9.6-3.1c-0.8,3.8-2.9,6.1-2.5,10.5"/>
		<path fill="none" stroke="#000000" stroke-width="2.176" stroke-miterlimit="10" d="M221.8,44.8c-2.1,2.1-2.8,5.4-4.5,7.7
			c-1.8,2.5-5.9,4.6-6.1,7.7c1.8,0,3.9,0,5.3,0.6"/>
		<path fill="none" stroke="#000000" stroke-width="2.176" stroke-miterlimit="10" d="M231,64.6c5.3-13-12.2-6.1-11.5,1.4
			c3.5,0.5,6.2-0.7,9.2-1.7c0.1,2.4-1.6,4.1-2.5,6.1"/>
		<path fill="none" stroke="#000000" stroke-width="2.176" stroke-miterlimit="10" d="M256.7,86.8c-2.9-5-14.5-3.4-13.5,3.3
			c3,1.2,9,2.6,12.3,0.6c-3,0.5-7,2.6-8.5,5.2"/>
		<path fill="none" stroke="#000000" stroke-width="2.176" stroke-miterlimit="10" d="M266.8,95.6c-5.2,1.6-19.5,3.1-13.1,10.6"/>
		<path fill="none" stroke="#000000" stroke-width="2.176" stroke-miterlimit="10" d="M261.5,112.5c1,5.9,9.6-1.1,0.5-3.4
			c-5.9-1.5-12.6,0.5-7.8,7.3"/>
		<path fill="none" stroke="#000000" stroke-width="2.176" stroke-miterlimit="10" d="M263.9,122.6c4.4,7.2,12.6-0.4,3.4-3.4
			c-7.7-2.5-14.2,2.6-7.3,8.7"/>
		<path fill="none" stroke="#000000" stroke-width="2.176" stroke-miterlimit="10" d="M62.7,217.4c1.6-2.8,2.6-7.3-0.5-9.2
			c-2.5-1.6-8.8-0.5-10.8,1.3c-5.9,5.3,1.5,13.8,7.9,13.2"/>
		<path fill="none" stroke="#000000" stroke-width="2.176" stroke-miterlimit="10" d="M76.3,241.6c0.7-2.3,5.4-4.1,3.2-7.2
			c-1.6-2.3-7.9-0.7-9.4,0.5c-1.9,1.5-4.4,5.6-1.7,7.8c2.1,1.7,6.3-0.5,8.4-1.1"/>
		<path fill="none" stroke="#000000" stroke-width="2.176" stroke-miterlimit="10" d="M94.1,246.4c-2.5,2.1-6.1,6.5-5.2,10.1
			c4.2,0.2,8.6,0.7,11.4-2.9c-2.5,0.6-7.5,7.7-3.2,9.2"/>
		<path fill="none" stroke="#000000" stroke-width="2.176" stroke-miterlimit="10" d="M116.9,261c0,3.1-0.6,7.5-1.5,10.5
			c1.7-2.9,5.8-7.5,9.6-7.5c0.2,3.5-1.3,10.5,4.4,9.6"/>
		<path fill="none" stroke="#000000" stroke-width="2.176" stroke-miterlimit="10" d="M153.2,267.7c-1.5-5.3-7,1.4-7.3,4.3
			c-0.5,5.8,4.4,5.3,8.7,5.3"/>
		<path fill="none" stroke="#000000" stroke-width="2.176" stroke-miterlimit="10" d="M171,264.8c0,2.4-0.7,8.8,0.5,10.7
			c1.8,2.9,4.7,2,5.8-1"/>
		<path fill="none" stroke="#000000" stroke-width="2.176" stroke-miterlimit="10" d="M191.4,255.2c-0.3,3.4,1,9.6,2.4,12.6
			c2.6,5.2,4.9,1.9,9.2,0"/>
		<path fill="none" stroke="#000000" stroke-width="2.176" stroke-miterlimit="10" d="M238.7,66.5c-1.8,1.3-9.3,5.8-7.6,8.6
			c1.1,1.8,11.4,0.7,13.3,0.1c-0.4,1.6-5.3,7.1-7.2,8.5c-3.3,2.4-5.1,1.5-7.6-1.7"/>
	</g>
</g>
</svg>
